{
  "accessors": [
    {
      "bufferView": 2,
      "componentType": 5126,
      "count": 41472,
      "max": [
        1.0665251016616821,
        1.066356897354126,
        -1.1116266250610352e-05
      ],
      "min": [
        -1.0663414001464844,
        -1.0665098428726196,
        -3.2566819190979004
      ],
      "type": "VEC3"
    },
    {
      "bufferView": 2,
      "byteOffset": 497664,
      "componentType": 5126,
      "count": 41472,
      "max": [
        0.9999971985816956,
        0.9999971389770508,
        1.0
      ],
      "min": [
        -0.9999971985816956,
        -0.9999971985816956,
        -1.0
      ],
      "type": "VEC3"
    },
    {
      "bufferView": 3,
      "componentType": 5126,
      "count": 41472,
      "max": [
        1.0,
        1.0,
        1.0,
        1.0
      ],
      "min": [
        -1.0,
        -1.0,
        -1.0,
        1.0
      ],
      "type": "VEC4"
    },
    {
      "bufferView": 1,
      "componentType": 5126,
      "count": 41472,
      "max": [
        1.0000011920928955,
        1.0
      ],
      "min": [
        0.0,
        0.0
      ],
      "type": "VEC2"
    },
    {
      "bufferView": 0,
      "componentType": 5125,
      "count": 62196,
      "type": "SCALAR"
    },
    {
      "bufferView": 2,
      "byteOffset": 995328,
      "componentType": 5126,
      "count": 8064,
      "max": [
        1.0598944425582886,
        1.0597262382507324,
        -1.1303671598434448
      ],
      "min": [
        -1.0597107410430908,
        -1.059879183769226,
        -3.249971389770508
      ],
      "type": "VEC3"
    },
    {
      "bufferView": 2,
      "byteOffset": 1092096,
      "componentType": 5126,
      "count": 8064,
      "max": [
        0.9975952506065369,
        0.9975954294204712,
        0.9987933039665222
      ],
      "min": [
        -0.9975951910018921,
        -0.9975952506065369,
        -0.9987937211990356
      ],
      "type": "VEC3"
    },
    {
      "bufferView": 3,
      "byteOffset": 663552,
      "componentType": 5126,
      "count": 8064,
      "max": [
        0.9987956881523132,
        0.9987956285476685,
        3.800848935497925e-05,
        1.0
      ],
      "min": [
        -0.998795747756958,
        -0.9987961649894714,
        -4.7901779907988384e-05,
        1.0
      ],
      "type": "VEC4"
    },
    {
      "bufferView": 1,
      "byteOffset": 331776,
      "componentType": 5126,
      "count": 8064,
      "max": [
        1.0000011920928955,
        1.0
      ],
      "min": [
        0.0,
        0.0
      ],
      "type": "VEC2"
    },
    {
      "bufferView": 0,
      "byteOffset": 248784,
      "componentType": 5125,
      "count": 11904,
      "type": "SCALAR"
    },
    {
      "bufferView": 4,
      "componentType": 5126,
      "count": 481,
      "max": [
        10.0
      ],
      "min": [
        0.0
      ],
      "type": "SCALAR"
    },
    {
      "bufferView": 5,
      "componentType": 5126,
      "count": 481,
      "max": [
        0.5,
        0.7071067690849304,
        0.7071067690849304,
        0.7071067690849304
      ],
      "min": [
        -0.7071067690849304,
        -0.4947366416454315,
        -0.4947366416454315,
        -0.5
      ],
      "type": "VEC4"
    }
  ],
  "animations": [
    {
      "channels": [
        {
          "sampler": 0,
          "target": {
            "node": 4,
            "path": "rotation"
          }
        }
      ],
      "name": "disco_ball|raotation",
      "samplers": [
        {
          "input": 10,
          "interpolation": "LINEAR",
          "output": 11
        }
      ]
    }
  ],
  "asset": {
    "extras": {
      "author": "SusanKing (https://sketchfab.com/krolzuzannapl)",
      "license": "CC-BY-4.0 (http://creativecommons.org/licenses/by/4.0/)",
      "source": "https://sketchfab.com/3d-models/disco-ball-animated-b949297d4ecb48a89ea3544621c999c9",
      "title": "Disco ball animated"
    },
    "generator": "Sketchfab-12.66.0",
    "version": "2.0"
  },
  "bufferViews": [
    {
      "buffer": 0,
      "byteLength": 296400,
      "name": "floatBufferViews",
      "target": 34963
    },
    {
      "buffer": 0,
      "byteLength": 396288,
      "byteOffset": 296400,
      "byteStride": 8,
      "name": "floatBufferViews",
      "target": 34962
    },
    {
      "buffer": 0,
      "byteLength": 1188864,
      "byteOffset": 692688,
      "byteStride": 12,
      "name": "floatBufferViews",
      "target": 34962
    },
    {
      "buffer": 0,
      "byteLength": 792576,
      "byteOffset": 1881552,
      "byteStride": 16,
      "name": "floatBufferViews",
      "target": 34962
    },
    {
      "buffer": 0,
      "byteLength": 1924,
      "byteOffset": 2674128,
      "name": "floatBufferViews"
    },
    {
      "buffer": 0,
      "byteLength": 7696,
      "byteOffset": 2676052,
      "byteStride": 16,
      "name": "floatBufferViews"
    }
  ],
  "buffers": [
    {
      "byteLength": 2683748,
      "uri": "scene.bin"
    }
  ],
  "images": [
    {
      "uri": "textures/disco_baseColor.jpeg"
    },
    {
      "uri": "textures/disco_metallicRoughness.png"
    },
    {
      "uri": "textures/disco_normal.png"
    },
    {
      "uri": "textures/spaces_baseColor.jpeg"
    },
    {
      "uri": "textures/spaces_metallicRoughness.png"
    },
    {
      "uri": "textures/spaces_normal.png"
    }
  ],
  "materials": [
    {
      "doubleSided": true,
      "name": "disco",
      "normalTexture": {
        "index": 2
      },
      "pbrMetallicRoughness": {
        "baseColorTexture": {
          "index": 0
        },
        "metallicRoughnessTexture": {
          "index": 1
        }
      }
    },
    {
      "doubleSided": true,
      "name": "spaces",
      "normalTexture": {
        "index": 5
      },
      "pbrMetallicRoughness": {
        "baseColorTexture": {
          "index": 3
        },
        "metallicRoughnessTexture": {
          "index": 4
        }
      }
    }
  ],
  "meshes": [
    {
      "name": "disco_ball_disco_0",
      "primitives": [
        {
          "attributes": {
            "NORMAL": 1,
            "POSITION": 0,
            "TANGENT": 2,
            "TEXCOORD_0": 3
          },
          "indices": 4,
          "material": 0,
          "mode": 4
        }
      ]
    },
    {
      "name": "disco_ball_spaces_0",
      "primitives": [
        {
          "attributes": {
            "NORMAL": 6,
            "POSITION": 5,
            "TANGENT": 7,
            "TEXCOORD_0": 8
          },
          "indices": 9,
          "material": 1,
          "mode": 4
        }
      ]
    }
  ],
  "nodes": [
    {
      "children": [
        1
      ],
      "matrix": [
        1.0,
        0.0,
        0.0,
        0.0,
        0.0,
        2.220446049250313e-16,
        -1.0,
        0.0,
        0.0,
        1.0,
        2.220446049250313e-16,
        0.0,
        0.0,
        0.0,
        0.0,
        1.0
      ],
      "name": "Sketchfab_model"
    },
    {
      "children": [
        2
      ],
      "matrix": [
        1.0,
        0.0,
        0.0,
        0.0,
        0.0,
        0.0,
        1.0,
        0.0,
        0.0,
        -1.0,
        0.0,
        0.0,
        0.0,
        0.0,
        0.0,
        1.0
      ],
      "name": "f8e6609749cf46188b827c6e142a7f19.fbx"
    },
    {
      "children": [
        3
      ],
      "name": "Object_2"
    },
    {
      "children": [
        4
      ],
      "name": "RootNode"
    },
    {
      "children": [
        5,
        6
      ],
      "name": "disco_ball",
      "rotation": [
        -0.18301263451576233,
        0.6830127239227295,
        0.6830127239227295,
        0.18301263451576233
      ],
      "scale": [
        56.292015075683594,
        56.292015075683594,
        56.292015075683594
      ],
      "translation": [
        0.006029265932738781,
        183.23483276367188,
        -0.016856150701642036
      ]
    },
    {
      "mesh": 0,
      "name": "disco_ball_disco_0"
    },
    {
      "mesh": 1,
      "name": "disco_ball_spaces_0"
    }
  ],
  "samplers": [
    {
      "magFilter": 9729,
      "minFilter": 9987,
      "wrapS": 10497,
      "wrapT": 10497
    }
  ],
  "scene": 0,
  "scenes": [
    {
      "name": "Sketchfab_Scene",
      "nodes": [
        0
      ]
    }
  ],
  "textures": [
    {
      "sampler": 0,
      "source": 0
    },
    {
      "sampler": 0,
      "source": 1
    },
    {
      "sampler": 0,
      "source": 2
    },
    {
      "sampler": 0,
      "source": 3
    },
    {
      "sampler": 0,
      "source": 4
    },
    {
      "sampler": 0,
      "source": 5
    }
  ]
}
