{
  "accessors": [
    {
      "bufferView": 2,
      "componentType": 5126,
      "count": 3132,
      "max": [
        1.0006099939346313,
        1.1676700115203857,
        1.0
      ],
      "min": [
        -1.0,
        -1.166990041732788,
        -1.0
      ],
      "type": "VEC3"
    },
    {
      "bufferView": 2,
      "byteOffset": 37584,
      "componentType": 5126,
      "count": 3132,
      "max": [
        1.0,
        1.0,
        1.0
      ],
      "min": [
        -1.0,
        -1.0,
        -1.0
      ],
      "type": "VEC3"
    },
    {
      "bufferView": 0,
      "componentType": 5125,
      "count": 8316,
      "type": "SCALAR"
    },
    {
      "bufferView": 2,
      "byteOffset": 75168,
      "componentType": 5126,
      "count": 64,
      "max": [
        0.8184000253677368,
        1.149340033531189,
        0.04396999999880791
      ],
      "min": [
        0.7651600241661072,
        -1.1486599445343018,
        -0.04396999999880791
      ],
      "type": "VEC3"
    },
    {
      "bufferView": 2,
      "byteOffset": 75936,
      "componentType": 5126,
      "count": 64,
      "max": [
        -0.0,
        1.0,
        -0.0
      ],
      "min": [
        -0.0,
        -1.0,
        -0.0
      ],
      "type": "VEC3"
    },
    {
      "bufferView": 0,
      "byteOffset": 33264,
      "componentType": 5125,
      "count": 180,
      "type": "SCALAR"
    },
    {
      "bufferView": 2,
      "byteOffset": 76704,
      "componentType": 5126,
      "count": 1600,
      "max": [
        0.8438199758529663,
        0.8373600244522095,
        0.8373600244522095
      ],
      "min": [
        0.8289499878883362,
        -0.8373600244522095,
        -0.8373600244522095
      ],
      "type": "VEC3"
    },
    {
      "bufferView": 2,
      "byteOffset": 95904,
      "componentType": 5126,
      "count": 1600,
      "max": [
        0.9999985098838806,
        0.9991012215614319,
        0.9991012215614319
      ],
      "min": [
        -1.999997766688466e-05,
        -0.9991012215614319,
        -0.9991012215614319
      ],
      "type": "VEC3"
    },
    {
      "bufferView": 1,
      "componentType": 5126,
      "count": 1600,
      "max": [
        0.9821599721908569,
        0.9821599721908569
      ],
      "min": [
        0.017839999869465828,
        0.017829999327659607
      ],
      "type": "VEC2"
    },
    {
      "bufferView": 0,
      "byteOffset": 33984,
      "componentType": 5125,
      "count": 4608,
      "type": "SCALAR"
    },
    {
      "bufferView": 2,
      "byteOffset": 115104,
      "componentType": 5126,
      "count": 1383,
      "max": [
        0.9728400111198425,
        0.8373600244522095,
        0.8373600244522095
      ],
      "min": [
        0.8177099823951721,
        -0.8373600244522095,
        -0.8373600244522095
      ],
      "type": "VEC3"
    },
    {
      "bufferView": 2,
      "byteOffset": 131700,
      "componentType": 5126,
      "count": 1383,
      "max": [
        1.0,
        0.9991012215614319,
        0.9991012215614319
      ],
      "min": [
        -3.0000002880115062e-05,
        -0.9991012215614319,
        -0.9991012215614319
      ],
      "type": "VEC3"
    },
    {
      "bufferView": 1,
      "byteOffset": 12800,
      "componentType": 5126,
      "count": 1383,
      "max": [
        0.9886400103569031,
        0.9886400103569031
      ],
      "min": [
        0.011359999887645245,
        0.011359999887645245
      ],
      "type": "VEC2"
    },
    {
      "bufferView": 0,
      "byteOffset": 52416,
      "componentType": 5125,
      "count": 4608,
      "type": "SCALAR"
    },
    {
      "bufferView": 2,
      "byteOffset": 148296,
      "componentType": 5126,
      "count": 2376,
      "max": [
        0.16220000386238098,
        1.3065500259399414,
        2.3281500339508057
      ],
      "min": [
        -0.1534699946641922,
        -1.3065500259399414,
        -0.47694000601768494
      ],
      "type": "VEC3"
    },
    {
      "bufferView": 2,
      "byteOffset": 176808,
      "componentType": 5126,
      "count": 2376,
      "max": [
        1.0,
        1.0,
        1.0
      ],
      "min": [
        -1.0,
        -1.0,
        -1.0
      ],
      "type": "VEC3"
    },
    {
      "bufferView": 0,
      "byteOffset": 70848,
      "componentType": 5125,
      "count": 6078,
      "type": "SCALAR"
    },
    {
      "bufferView": 2,
      "byteOffset": 205320,
      "componentType": 5126,
      "count": 8012,
      "max": [
        0.32993999123573303,
        1.2580100297927856,
        3.790260076522827
      ],
      "min": [
        -0.2540700137615204,
        -1.2580000162124634,
        -0.11642000079154968
      ],
      "type": "VEC3"
    },
    {
      "bufferView": 2,
      "byteOffset": 301464,
      "componentType": 5126,
      "count": 8012,
      "max": [
        1.0,
        1.0,
        1.0
      ],
      "min": [
        -1.0,
        -1.0,
        -1.0
      ],
      "type": "VEC3"
    },
    {
      "bufferView": 0,
      "byteOffset": 95160,
      "componentType": 5125,
      "count": 14802,
      "type": "SCALAR"
    }
  ],
  "asset": {
    "extras": {
      "author": "Mike Rowley (https://sketchfab.com/scrumpy26)",
      "license": "CC-BY-NC-4.0 (http://creativecommons.org/licenses/by-nc/4.0/)",
      "source": "https://sketchfab.com/3d-models/stage-light-fresnel-3554154c724c4cf1b8db4ff26f65b54c",
      "title": "Stage Light - Fresnel"
    },
    "generator": "Sketchfab-12.68.0",
    "version": "2.0"
  },
  "bufferViews": [
    {
      "buffer": 0,
      "byteLength": 154368,
      "name": "floatBufferViews",
      "target": 34963
    },
    {
      "buffer": 0,
      "byteLength": 23864,
      "byteOffset": 154368,
      "byteStride": 8,
      "name": "floatBufferViews",
      "target": 34962
    },
    {
      "buffer": 0,
      "byteLength": 397608,
      "byteOffset": 178232,
      "byteStride": 12,
      "name": "floatBufferViews",
      "target": 34962
    }
  ],
  "buffers": [
    {
      "byteLength": 575840,
      "uri": "scene.bin"
    }
  ],
  "images": [
    {
      "uri": "textures/Material.003_baseColor.png"
    }
  ],
  "materials": [
    {
      "doubleSided": true,
      "name": "Material",
      "pbrMetallicRoughness": {
        "baseColorFactor": [
          0.0003424751363051048,
          0.0003379290061771609,
          0.0003379290061771609,
          1.0
        ],
        "metallicFactor": 0.06,
        "roughnessFactor": 0.71
      }
    },
    {
      "doubleSided": true,
      "name": "Material.001",
      "pbrMetallicRoughness": {
        "baseColorFactor": [
          0.2767770907164483,
          0.2577240916170126,
          0.2577240916170126,
          1.0
        ],
        "metallicFactor": 0.97,
        "roughnessFactor": 0.05
      }
    },
    {
      "alphaMode": "BLEND",
      "doubleSided": true,
      "name": "Material.003",
      "pbrMetallicRoughness": {
        "baseColorFactor": [
          0.9899636880863927,
          0.9701554944926655,
          0.9701554944926655,
          1.0
        ],
        "baseColorTexture": {
          "index": 0
        },
        "metallicFactor": 0.63,
        "roughnessFactor": 0.54
      }
    }
  ],
  "meshes": [
    {
      "name": "Cube_0",
      "primitives": [
        {
          "attributes": {
            "NORMAL": 1,
            "POSITION": 0
          },
          "indices": 2,
          "material": 0,
          "mode": 4
        }
      ]
    },
    {
      "name": "Cube_1",
      "primitives": [
        {
          "attributes": {
            "NORMAL": 4,
            "POSITION": 3
          },
          "indices": 5,
          "material": 1,
          "mode": 4
        }
      ]
    },
    {
      "name": "lens_0",
      "primitives": [
        {
          "attributes": {
            "NORMAL": 7,
            "POSITION": 6,
            "TEXCOORD_0": 8
          },
          "indices": 9,
          "material": 1,
          "mode": 4
        }
      ]
    },
    {
      "name": "lens_1",
      "primitives": [
        {
          "attributes": {
            "NORMAL": 11,
            "POSITION": 10,
            "TEXCOORD_0": 12
          },
          "indices": 13,
          "material": 2,
          "mode": 4
        }
      ]
    },
    {
      "name": "hanger_0",
      "primitives": [
        {
          "attributes": {
            "NORMAL": 15,
            "POSITION": 14
          },
          "indices": 16,
          "material": 0,
          "mode": 4
        }
      ]
    },
    {
      "name": "hanger_1",
      "primitives": [
        {
          "attributes": {
            "NORMAL": 18,
            "POSITION": 17
          },
          "indices": 19,
          "material": 1,
          "mode": 4
        }
      ]
    }
  ],
  "nodes": [
    {
      "children": [
        1
      ],
      "matrix": [
        1.0,
        0.0,
        0.0,
        0.0,
        0.0,
        2.220446049250313e-16,
        -1.0,
        0.0,
        0.0,
        1.0,
        2.220446049250313e-16,
        0.0,
        0.0,
        0.0,
        0.0,
        1.0
      ],
      "name": "Sketchfab_model"
    },
    {
      "children": [
        2,
        4,
        7,
        10,
        12
      ],
      "name": "Root"
    },
    {
      "children": [
        3
      ],
      "matrix": [
        0.19368000000000002,
        0.1451,
        0.97027,
        0.0,
        -0.9587200000000001,
        -0.18187,
        0.21858000000000002,
        0.0,
        0.20818,
        -0.9725599999999999,
        0.10389000000000001,
        0.0,
        5.600549999999999,
        -6.449560000000001,
        4.604929999999999,
        1.0
      ],
      "name": "Lamp"
    },
    {
      "name": "Lamp"
    },
    {
      "children": [
        5,
        6
      ],
      "matrix": [
        1.4836899999999997,
        0.0,
        -0.7260900000000001,
        0.0,
        0.0,
        1.0,
        0.0,
        0.0,
        0.43957000000000007,
        0.0,
        0.8982100000000001,
        0.0,
        -0.6559300000000001,
        0.0,
        1.09381,
        1.0
      ],
      "name": "Cube"
    },
    {
      "mesh": 0,
      "name": "Cube_0"
    },
    {
      "mesh": 1,
      "name": "Cube_1"
    },
    {
      "children": [
        8,
        9
      ],
      "matrix": [
        1.4836899999999997,
        0.0,
        -0.7260900000000001,
        0.0,
        0.0,
        1.0,
        0.0,
        0.0,
        0.43957000000000007,
        0.0,
        0.8982100000000001,
        0.0,
        -0.6559300000000001,
        0.0,
        1.09381,
        1.0
      ],
      "name": "lens"
    },
    {
      "mesh": 2,
      "name": "lens_0"
    },
    {
      "mesh": 3,
      "name": "lens_1"
    },
    {
      "children": [
        11
      ],
      "matrix": [
        0.8982100000000001,
        0.0,
        -0.43957000000000007,
        0.0,
        0.0,
        1.0,
        0.0,
        0.0,
        0.43957000000000007,
        0.0,
        0.8982100000000001,
        0.0,
        0.24704000000000004,
        0.0,
        0.6519200000000002,
        1.0
      ],
      "name": "Point"
    },
    {
      "name": "Point"
    },
    {
      "children": [
        13,
        14
      ],
      "matrix": [
        1.6442800000000002,
        0.0,
        -0.15783000000000003,
        0.0,
        0.0,
        1.0,
        0.0,
        0.0,
        0.09555000000000002,
        0.0,
        0.99542,
        0.0,
        -0.7457100000000001,
        -0.020730000000000002,
        1.72943,
        1.0
      ],
      "name": "hanger"
    },
    {
      "mesh": 4,
      "name": "hanger_0"
    },
    {
      "mesh": 5,
      "name": "hanger_1"
    }
  ],
  "samplers": [
    {
      "magFilter": 9729,
      "minFilter": 9987,
      "wrapS": 10497,
      "wrapT": 10497
    }
  ],
  "scene": 0,
  "scenes": [
    {
      "name": "Sketchfab_Scene",
      "nodes": [
        0
      ]
    }
  ],
  "textures": [
    {
      "sampler": 0,
      "source": 0
    }
  ]
}
